# xmcd
#
# Track frame offsets: 
#        150
#        19736
#        47220
#        61047
#        85450
#        121403
#        148592
#        168916
#        188449
#        208491
#        233630
#        254111
#        272854
#
# Disc length: 4027 seconds
#
# Revision: 8
# Processed by: cddbd v1.5.2PL0 Copyright (c) Steve Scherf et al.
# Submitted via: ExactAudioCopy v1.0b3
#
DISCID=bd0fb90d
DTITLE=Bebel Gilberto - Bebel Gilberto Remixed (Japanese Edition)
DYEAR=2005
DGENRE=Electronic
TTITLE0=Céu Distante (DJ Spinna Mix)
TTITLE1=Simplesmente (Tom Middleton Cosmos Mix)
TTITLE2=O Caminho (Guy Sigsworth Mix)
TTITLE3=Aganjú (Latin Project Mix)
TTITLE4=Winter (Nuspirit Helsinki Reinterpretation)
TTITLE5=Baby (Uptown Safari Jazz Mix by Yam Who?)
TTITLE6=All Around (Telefon Tel Aviv Mix)
TTITLE7=Cada Beijo (Thievery Corporation Mix)
TTITLE8=Jabuticaba (Stuhr Mix)
TTITLE9=Aganjú (Spiritual South Sub Rub)
TTITLE10=Next to You (Steve Hilier Version)
TTITLE11=Every Day You've Been Away (Monoaural Mix)
TTITLE12=River Song (Grant Nelson Mix)
EXTD=YEAR: 2005
EXTT0=
EXTT1=
EXTT2=
EXTT3=
EXTT4=
EXTT5=
EXTT6=
EXTT7=
EXTT8=
EXTT9=
EXTT10=
EXTT11=
EXTT12=
PLAYORDER=
